<svg width="117" height="21" viewBox="0 0 117 21" fill="none" xmlns="http://www.w3.org/2000/svg">
<path d="M5.32373 17H0.865234V0.828125H5.32373V7.89209H11.231V0.828125H15.6895V17H11.231V9.94727H5.32373V17ZM34.7476 9.26221V9.47559C34.7326 10.1045 34.6652 10.7559 34.5454 11.4297C34.4331 12.1035 34.2721 12.7773 34.0625 13.4512C33.8529 14.125 33.6021 14.7913 33.3101 15.4502C33.0181 16.109 32.6886 16.738 32.3218 17.3369C31.9624 17.9434 31.5731 18.5086 31.1538 19.0327C30.7345 19.5643 30.2928 20.0322 29.8286 20.4365L28.1553 19.4707C28.4173 19.029 28.6532 18.5461 28.8628 18.022C29.0799 17.5054 29.2746 16.9626 29.4468 16.3936C29.619 15.8245 29.765 15.2406 29.8848 14.6416C30.012 14.0426 30.1169 13.4474 30.1992 12.856C30.2816 12.2645 30.3415 11.6842 30.3789 11.1152C30.4238 10.5387 30.4463 9.99219 30.4463 9.47559C30.4463 9.07129 30.4425 8.61458 30.4351 8.10547C30.4351 7.58887 30.4051 7.06478 30.3452 6.5332C30.2928 6.00163 30.203 5.48503 30.0757 4.9834C29.9484 4.47428 29.7575 4.02132 29.5029 3.62451C29.2559 3.2277 28.9339 2.90951 28.5371 2.66992C28.1478 2.43034 27.6611 2.31055 27.0771 2.31055C26.5605 2.31055 26.1151 2.40039 25.7407 2.58008C25.3739 2.75228 25.0594 2.98812 24.7974 3.2876C24.5428 3.57959 24.3369 3.92025 24.1797 4.30957C24.0299 4.69889 23.9102 5.11068 23.8203 5.54492C23.738 5.97168 23.6818 6.40592 23.6519 6.84766C23.6294 7.2819 23.6182 7.69368 23.6182 8.08301V11.2163H28.4585V13.0693H23.6182V17H19.1597V8.7793C19.1597 7.60384 19.3468 6.51074 19.7212 5.5C20.0955 4.48926 20.6234 3.61328 21.3047 2.87207C21.9935 2.12337 22.8171 1.53939 23.7754 1.12012C24.7412 0.693359 25.8156 0.47998 26.9985 0.47998C27.7996 0.47998 28.5483 0.596029 29.2446 0.828125C29.9484 1.05273 30.5885 1.36719 31.165 1.77148C31.7415 2.16829 32.2544 2.64372 32.7036 3.19775C33.1603 3.7443 33.5384 4.34326 33.8379 4.99463C34.1449 5.646 34.377 6.3348 34.5342 7.06104C34.6914 7.78727 34.7625 8.521 34.7476 9.26221ZM40.6548 4.93848L39.397 17H36.6455L39.397 0.828125H43.4736L47.2583 13.1704L51.0879 0.828125H55.1646L57.4556 17H52.9185L51.582 5.25293L48.4263 17H44.3496L40.6548 4.93848ZM64.7554 17H60.2969V0.828125H64.7554V17ZM84.1055 8.8916C84.1055 9.67773 84.0007 10.4264 83.791 11.1377C83.5814 11.8415 83.2856 12.4928 82.9038 13.0918C82.5295 13.6908 82.0802 14.2336 81.5562 14.7202C81.0321 15.1994 80.4518 15.6074 79.8154 15.9443C79.1865 16.2812 78.509 16.5433 77.7827 16.7305C77.064 16.9102 76.3228 17 75.5591 17H68.4277V0.828125H75.5591C76.3228 0.828125 77.064 0.917969 77.7827 1.09766C78.5015 1.27734 79.1753 1.53564 79.8042 1.87256C80.4406 2.20199 81.0208 2.60628 81.5449 3.08545C82.0765 3.56462 82.5295 4.10368 82.9038 4.70264C83.2856 5.29411 83.5814 5.94548 83.791 6.65674C84.0007 7.36051 84.1055 8.10547 84.1055 8.8916ZM79.5796 8.8916C79.5796 8.01562 79.471 7.18457 79.2539 6.39844C79.0443 5.60482 78.7148 4.90853 78.2656 4.30957C77.8164 3.71061 77.2437 3.23519 76.5474 2.8833C75.8586 2.53141 75.0312 2.35547 74.0654 2.35547H72.8862V15.4277H74.0654C75.0163 15.4277 75.8361 15.2518 76.5249 14.8999C77.2212 14.5405 77.7939 14.0614 78.2432 13.4624C78.6999 12.856 79.0368 12.1597 79.2539 11.3735C79.471 10.5874 79.5796 9.76009 79.5796 8.8916ZM108.756 9.26221V9.47559C108.741 10.1045 108.674 10.7559 108.554 11.4297C108.442 12.1035 108.281 12.7773 108.071 13.4512C107.862 14.125 107.611 14.7913 107.319 15.4502C107.027 16.109 106.697 16.738 106.331 17.3369C105.971 17.9434 105.582 18.5086 105.163 19.0327C104.743 19.5643 104.302 20.0322 103.837 20.4365L102.164 19.4707C102.426 19.029 102.662 18.5461 102.872 18.022C103.089 17.5054 103.283 16.9626 103.456 16.3936C103.628 15.8245 103.774 15.2406 103.894 14.6416C104.021 14.0426 104.126 13.4474 104.208 12.856C104.29 12.2645 104.35 11.6842 104.388 11.1152C104.433 10.5387 104.455 9.99219 104.455 9.47559C104.455 9.07129 104.451 8.61458 104.444 8.10547C104.444 7.58887 104.414 7.06478 104.354 6.5332C104.302 6.00163 104.212 5.48503 104.084 4.9834C103.957 4.47428 103.766 4.02132 103.512 3.62451C103.265 3.2277 102.943 2.90951 102.546 2.66992C102.157 2.43034 101.67 2.31055 101.086 2.31055C100.569 2.31055 100.124 2.40039 99.7495 2.58008C99.3826 2.75228 99.0682 2.98812 98.8062 3.2876C98.5516 3.57959 98.3457 3.92025 98.1885 4.30957C98.0387 4.69889 97.9189 5.11068 97.8291 5.54492C97.7467 5.97168 97.6906 6.40592 97.6606 6.84766C97.6382 7.2819 97.627 7.69368 97.627 8.08301V11.2163H102.467V13.0693H97.627V17H93.1685V8.7793C93.1685 7.60384 93.3556 6.51074 93.73 5.5C94.1043 4.48926 94.6322 3.61328 95.3135 2.87207C96.0023 2.12337 96.8258 1.53939 97.7842 1.12012C98.75 0.693359 99.8244 0.47998 101.007 0.47998C101.808 0.47998 102.557 0.596029 103.253 0.828125C103.957 1.05273 104.597 1.36719 105.174 1.77148C105.75 2.16829 106.263 2.64372 106.712 3.19775C107.169 3.7443 107.547 4.34326 107.847 4.99463C108.154 5.646 108.386 6.3348 108.543 7.06104C108.7 7.78727 108.771 8.521 108.756 9.26221ZM116.124 17H111.665V0.828125H116.124V17Z" fill="#DCDCDC"/>
</svg>
